<?xml version="1.0" encoding="UTF-8"?>
<svg id="Layer_2" data-name="Layer 2" xmlns="http://www.w3.org/2000/svg" viewBox="0 0 500 491.08">
  <defs>
    <style>
      .cls-1 {
        fill: #f92317;
      }

      .cls-1, .cls-2, .cls-3, .cls-4, .cls-5, .cls-6 {
        stroke-width: 0px;
      }

      .cls-2 {
        fill: #072962;
      }

      .cls-3 {
        fill: #fff;
      }

      .cls-4 {
        fill: #ffd13d;
      }

      .cls-5 {
        fill: #ed1e54;
      }

      .cls-6 {
        fill: #00b6fa;
      }
    </style>
  </defs>
  <g id="Layer_1-2" data-name="Layer 1">
    <path class="cls-5" d="m323.5,337.93c-44.39,8.65-57-48.38-90.99-72.91-31.23-22.54-85.33-10.49-93.28-51.28C122.64,128.56,172.92,18.73,258.1,2.13c85.18-16.59,173,66.35,189.59,151.53,6.11,31.38-20.59,60.67-31.95,88.16-19.47,47.13-38.45,85.63-92.24,96.11Z"/>
    <path class="cls-6" d="m134.52,381.43c-31.86,6.21-40.91-34.72-65.31-52.33-22.41-16.18-61.25-7.53-66.95-36.8-11.91-61.13,24.18-139.97,85.31-151.88,61.13-11.91,124.17,47.62,136.08,108.75,4.39,22.53-14.78,43.54-22.93,63.28-13.97,33.82-27.59,61.46-66.2,68.98Z"/>
    <path class="cls-1" d="m358.81,441.49c-31.86,6.21-40.91-34.72-65.31-52.33-22.41-16.18-61.25-7.53-66.95-36.8-11.91-61.13,24.18-139.97,85.31-151.88,61.13-11.91,124.17,47.62,136.08,108.75,4.39,22.53-14.78,43.54-22.93,63.28-13.97,33.82-27.59,61.46-66.2,68.98Z"/>
    <circle class="cls-4" cx="197.42" cy="405.81" r="85.27"/>
    <path class="cls-2" d="m500,248.7c0,60.89-78.61,62.89-119.78,101.49-37.84,35.47-35.83,110.08-91.78,110.08-116.85,0-249.07-94.72-249.07-211.57S171.59,37.14,288.43,37.14c60.91,0,74.88,42.83,108.29,64.92,57.27,37.86,103.27,72.85,103.27,146.65Z"/>
    <path class="cls-3" d="m314.57,145.02h-55.88v96.17l30.68,67.16v-132.78h25.08c43.1,0,70.13,26.05,70.13,67.69s-26.91,67.33-69.76,67.33h-30.89l-58.94-128.78-15.63,35.48,30.51,67.92h-62.27l-11.64,26.42h85.84l12.39,29.65h50.38c62.34,0,101.17-37.62,101.17-97.89s-38.84-98.49-101.17-98.37"/>
    <polygon class="cls-3" points="206.26 141.17 204.43 141.17 112.15 341.45 144.95 341.45 221.61 174.18 206.26 141.17"/>
  </g>
</svg>